<svg width="746" height="328" viewBox="0 0 746 328" fill="none" xmlns="http://www.w3.org/2000/svg">
<path fill-rule="evenodd" clip-rule="evenodd" d="M159.482 82C207.279 82.0003 244.632 115.834 244.631 165.096C244.63 200.287 206.389 243.197 156.966 245.894C107.542 248.59 74.1022 199.579 83.6204 153.87C93.1399 108.161 127.007 82.0003 159.482 82ZM184.941 119.173C162.164 105.887 132.831 113.715 119.426 136.655C106.022 159.595 113.621 188.962 136.398 202.249C159.176 215.535 188.506 207.709 201.911 184.769C215.316 161.829 207.719 132.46 184.941 119.173Z" fill="#F1752D"/>
<path fill-rule="evenodd" clip-rule="evenodd" d="M461.945 134.506C489.64 134.507 512.092 156.145 512.093 182.837C512.093 206.452 493.829 227.632 460.59 231.654C427.352 235.675 408.524 208.402 412.009 182.715C415.495 157.027 434.25 134.506 461.945 134.506ZM461.322 154.958C445.789 154.958 433.197 167.549 433.196 183.08C433.197 198.611 445.789 211.202 461.322 211.202C476.855 211.201 489.448 198.61 489.448 183.08C489.448 167.55 476.855 154.958 461.322 154.958Z" fill="#F1752D"/>
<path d="M356.78 103.08C362.043 103.08 367.187 103.677 372.211 104.873C377.235 106.069 381.959 107.805 386.385 110.078C389.495 111.632 391.289 114.083 391.768 117.431C392.366 120.78 391.53 123.83 389.257 126.581C387.702 128.734 385.668 129.931 383.156 130.17C380.764 130.409 378.313 129.93 375.801 128.734C372.931 127.418 369.878 126.403 366.648 125.685C363.539 124.968 360.248 124.607 356.78 124.607C350.321 124.607 344.52 125.626 339.377 127.659C334.353 129.692 330.045 132.623 326.457 136.45C322.869 140.157 320.118 144.582 318.204 149.724C316.41 154.867 315.513 160.55 315.513 166.769C315.513 174.064 316.529 180.404 318.562 185.786C320.715 191.167 323.646 195.652 327.354 199.24C331.062 202.828 335.428 205.519 340.452 207.313C345.476 208.987 350.919 209.824 356.78 209.825C360.009 209.825 363.241 209.527 366.47 208.929C369.7 208.331 372.811 207.255 375.801 205.7C378.313 204.505 380.764 204.084 383.156 204.442C385.668 204.801 387.763 206.058 389.437 208.211C391.829 211.201 392.667 214.311 391.949 217.541C391.351 220.65 389.556 222.921 386.566 224.356C383.456 225.911 380.226 227.227 376.877 228.303C373.647 229.26 370.357 229.978 367.008 230.456C363.659 231.054 360.249 231.355 356.78 231.355C348.168 231.355 339.974 229.978 332.2 227.228C324.544 224.477 317.665 220.409 311.565 215.027C305.584 209.645 300.857 202.948 297.388 194.935C293.92 186.802 292.185 177.413 292.185 166.769C292.185 157.56 293.741 149.066 296.851 141.292C300.08 133.518 304.568 126.822 310.309 121.201C316.17 115.46 323.047 111.034 330.941 107.925C338.836 104.695 347.45 103.08 356.78 103.08Z" fill="#F1752D"/>
<path fill-rule="evenodd" clip-rule="evenodd" d="M653.788 134.601C659.427 134.601 664 139.171 664 144.809V219.46C663.999 225.097 659.426 229.668 653.788 229.668C648.15 229.667 643.58 225.097 643.579 219.46V217.798C636.467 225.35 626.891 231.17 614.419 231.35C588.28 231.725 571.354 208.364 571.766 182.732C572.087 162.841 583.178 134.602 615.543 134.601C626.612 134.601 636.158 139.778 643.579 147.118V144.809C643.58 139.171 648.15 134.601 653.788 134.601ZM615.974 155.272C600.642 155.272 588.214 167.701 588.214 183.031C588.214 198.361 600.642 210.79 615.974 210.791C630.309 210.79 642.105 199.925 643.579 185.983V180.077C642.104 166.136 630.309 155.272 615.974 155.272Z" fill="#F1752D"/>
<path d="M541.926 97.0134C547.863 97.0135 552.677 101.825 552.677 107.761V218.81C552.677 224.747 547.863 229.558 541.926 229.558C535.988 229.558 531.176 224.747 531.176 218.81V107.761C531.176 101.825 535.988 97.0137 541.926 97.0134Z" fill="#F1752D"/>
</svg>
